<?xml version="1.0" encoding="utf-8"?>
<!-- Generator: Adobe Illustrator 24.2.1, SVG Export Plug-In . SVG Version: 6.00 Build 0)  -->
<svg version="1.1" id="Layer_1" xmlns="http://www.w3.org/2000/svg" xmlns:xlink="http://www.w3.org/1999/xlink" x="0px" y="0px"
	 viewBox="0 0 512 512" style="enable-background:new 0 0 512 512;" xml:space="preserve">
<style type="text/css">
	.st0{fill:url(#SVGID_1_);}
	.st1{fill:#182B6B;}
	.st2{fill:url(#SVGID_2_);}
	.st3{fill:#72BA5A;}
	.st4{fill:url(#SVGID_3_);}
	.st5{fill:#E89638;}
	.st6{font-family:'Montserrat-Bold';}
	.st7{font-size:37.7437px;}
	.st8{letter-spacing:2;}
	.st9{fill-rule:evenodd;clip-rule:evenodd;fill:#E89638;}
</style>
<g>
	<g>
		<linearGradient id="SVGID_1_" gradientUnits="userSpaceOnUse" x1="10.3208" y1="257.0001" x2="504.7249" y2="254.9875">
			<stop  offset="0" style="stop-color:#182B6B"/>
			<stop  offset="1" style="stop-color:#359084"/>
		</linearGradient>
		<path class="st0" d="M256,504.32C119.08,504.32,7.68,392.92,7.68,256C7.68,119.08,119.08,7.68,256,7.68
			c136.92,0,248.32,111.4,248.32,248.32C504.32,392.92,392.92,504.32,256,504.32z M256,18.63C125.12,18.63,18.64,125.12,18.64,256
			S125.12,493.37,256,493.37S493.36,386.88,493.36,256S386.88,18.63,256,18.63z"/>
	</g>
	<polygon class="st1" points="237.3,428.26 186.31,380.63 186.31,209.88 237.3,209.88 	"/>
	<linearGradient id="SVGID_2_" gradientUnits="userSpaceOnUse" x1="143.8418" y1="307.1502" x2="328.7079" y2="307.1502">
		<stop  offset="0" style="stop-color:#182B6B"/>
		<stop  offset="1" style="stop-color:#359084"/>
	</linearGradient>
	<path class="st2" d="M289.62,268.85h50.98v109.41l-50.98,47.63V268.85z M390.42,209.88H249.83v44.81h140.59l44.27-66.28
		L390.42,209.88z"/>
	<circle class="st1" cx="209.97" cy="168.96" r="27.33"/>
	<polygon class="st3" points="264.46,155.74 283.54,183.58 274.58,183.58 273.18,193.16 	"/>
	<path class="st3" d="M324.82,170.9l-30.47,11.17c-1.86-5.96-28.7-38.78-28.7-38.78l-3.05,4.45l-1.82-7.78
		C287.53,142.86,308.15,153.81,324.82,170.9z"/>
	<path class="st3" d="M343.13,194.39h-47.06c8.22-5.26,23.4-13.41,33.26-18.6c4.62,5.28,8.94,11.09,13.01,17.33
		C342.61,193.53,342.89,193.95,343.13,194.39z"/>
	<linearGradient id="SVGID_3_" gradientUnits="userSpaceOnUse" x1="108.242" y1="386.7365" x2="157.2128" y2="166.0324">
		<stop  offset="0" style="stop-color:#D07422"/>
		<stop  offset="1" style="stop-color:#F29D2F"/>
	</linearGradient>
	<path class="st4" d="M150.82,340.49c3.24-3.46,8.61-7.32,17.09-9.03l-0.07,24.45C161.67,351.31,155.97,346.16,150.82,340.49z
		 M142.3,319.06c-0.02,0.02-0.02,0.02-0.02,0.04c-1.42,1.84-2.69,3.64-3.83,5.37c-29.01,43.92,19.19,58.47,19.19,58.47
		c-22.63-14.24-20.11-31.39-15.03-42.24l-0.33-0.57c7.16-13.56,18.53-19.56,25.65-22.13l0.04-20.68
		C160.95,300.55,150.82,310.1,142.3,319.06z M137.96,323.73c0.15,0.24,0.33,0.5,0.48,0.74c1.14-1.73,2.41-3.53,3.83-5.37
		C140.77,320.68,139.32,322.24,137.96,323.73z M119.82,245.52l-35.97,13.34L120,274.02c1.91,15.12,6.62,29.38,13.56,42.24
		c12.4-12.53,26.68-24.76,34.44-31.22v-4.51l-73.41-21.67h73.48l0.15-69.03l-19.48-10.3C133.01,197.61,122.56,220.41,119.82,245.52z
		 M156.32,171.56l11.94,4.47l0.02-14.55C164.08,164.59,160.09,167.94,156.32,171.56z"/>
	<polygon class="st3" points="273.18,193.16 273.47,194.39 296.07,194.39 	"/>
	<polygon class="st5" points="273.47,194.39 253.33,112.72 243.64,149.64 251.84,133.23 251.84,193.77 	"/>
	<text transform="matrix(1 0 0 1 37.7207 269.7031)" class="st5 st6 st7 st8">w</text>
	<path class="st9" d="M278.89,87.52L258.5,74.43l0.03-0.66c0,0,0-0.01,0-0.01v0l0,0v0v0v0v0v0v0l0,0v0v0v0v0c0-0.1,0-0.19,0-0.29v0
		c0-0.1,0-0.19,0-0.29v0c0-0.1,0-0.19,0-0.29v0l0-0.29v0c0-0.1,0-0.19,0-0.29v0c0-0.09,0-0.19,0-0.28v0c0-0.09,0-0.19,0-0.28v0
		c0-0.19,0-0.38,0-0.56c0-0.09,0-0.19,0-0.28c0-0.09,0-0.19,0-0.28c0-0.18,0-0.37-0.01-0.55v0c0-0.09,0-0.18,0-0.27
		c0-0.09,0-0.18-0.01-0.27v0c0-0.09,0-0.18-0.01-0.27v0c0-0.09-0.01-0.18-0.01-0.27c-0.01-0.18-0.01-0.35-0.02-0.53v0
		c0-0.09-0.01-0.17-0.01-0.26c0-0.09-0.01-0.17-0.01-0.26c-0.01-0.17-0.02-0.34-0.03-0.51v0c-0.01-0.08-0.01-0.17-0.02-0.25
		c-0.01-0.08-0.01-0.17-0.02-0.25c-0.01-0.08-0.02-0.17-0.02-0.25v0c-0.01-0.08-0.02-0.16-0.03-0.25s-0.02-0.16-0.03-0.24
		c-0.01-0.08-0.02-0.16-0.03-0.24v0c-0.01-0.08-0.02-0.16-0.04-0.24c-0.01-0.08-0.02-0.16-0.04-0.24v0
		c-0.01-0.08-0.03-0.16-0.04-0.23c-0.01-0.08-0.03-0.15-0.04-0.23c-0.02-0.08-0.03-0.15-0.05-0.23c-0.02-0.08-0.03-0.15-0.05-0.22
		c-0.02-0.07-0.04-0.15-0.05-0.22c-0.04-0.15-0.08-0.29-0.12-0.43c-0.02-0.07-0.04-0.14-0.06-0.21c-1.64-5.21-5.39-5.21-7.03,0
		c-0.02,0.07-0.04,0.14-0.06,0.21c-0.04,0.14-0.08,0.29-0.12,0.43c-0.02,0.07-0.04,0.15-0.05,0.22c-0.02,0.07-0.03,0.15-0.05,0.22
		c-0.02,0.08-0.03,0.15-0.05,0.23c-0.02,0.08-0.03,0.15-0.04,0.23c-0.01,0.08-0.03,0.15-0.04,0.23v0c-0.01,0.08-0.03,0.16-0.04,0.24
		c-0.01,0.08-0.02,0.16-0.04,0.24v0c-0.01,0.08-0.02,0.16-0.03,0.24c-0.01,0.08-0.02,0.16-0.03,0.24c-0.01,0.08-0.02,0.16-0.03,0.25
		v0c-0.01,0.08-0.02,0.17-0.02,0.25c-0.01,0.08-0.02,0.17-0.02,0.25c-0.01,0.08-0.01,0.17-0.02,0.25v0
		c-0.01,0.17-0.02,0.34-0.03,0.51c-0.01,0.09-0.01,0.17-0.01,0.26c0,0.09-0.01,0.17-0.01,0.26v0c-0.01,0.18-0.01,0.35-0.02,0.53
		c0,0.09-0.01,0.18-0.01,0.27v0c0,0.09,0,0.18-0.01,0.27v0c0,0.09,0,0.18-0.01,0.27c0,0.09,0,0.18,0,0.27v0c0,0.18,0,0.37-0.01,0.55
		c0,0.09,0,0.18,0,0.28c0,0.09,0,0.19,0,0.28c0,0.19,0,0.37,0,0.56v0c0,0.09,0,0.19,0,0.28v0c0,0.09,0,0.19,0,0.28v0
		c0,0.09,0,0.19,0,0.29v0l0,0.29v0c0,0.1,0,0.19,0,0.29v0c0,0.1,0,0.19,0,0.29v0c0,0.1,0,0.19,0,0.29v0v0v0v0l0,0v0v0v0v0v0v0l0,0v0
		c0,0,0,0.01,0,0.01l0.03,0.66l-20.39,13.09c-0.11,0.07-0.17,0.18-0.17,0.31v2.81c0,0.12,0.05,0.22,0.14,0.29
		c0.09,0.07,0.2,0.09,0.31,0.06l20.55-5.51l0.59,14.57l-5.79,6.1c-0.07,0.07-0.11,0.16-0.11,0.26v1.4c0,0.13,0.06,0.25,0.17,0.32
		s0.24,0.08,0.36,0.03l6.96-3.06c0,0,0,0,0,0c0,0.03,0.01,0.06,0.02,0.1c0.01,0.03,0.01,0.06,0.02,0.09
		c0.01,0.03,0.01,0.06,0.02,0.09c0.01,0.03,0.01,0.06,0.02,0.09c0.01,0.03,0.01,0.06,0.02,0.09c0.01,0.03,0.01,0.06,0.02,0.09
		c0.01,0.06,0.03,0.12,0.05,0.18c0.01,0.03,0.02,0.06,0.03,0.09c0.04,0.11,0.08,0.22,0.12,0.33c0.01,0.03,0.02,0.05,0.03,0.08
		c0.02,0.05,0.05,0.1,0.07,0.15c0.03,0.05,0.05,0.1,0.08,0.15c0.37,0.63,0.74,0.95,1.11,0.96c0.41,0.02,0.82-0.36,1.2-1.11
		c0.03-0.05,0.05-0.1,0.07-0.15c0.01-0.03,0.02-0.05,0.03-0.08c0.04-0.11,0.08-0.22,0.12-0.33c0.01-0.03,0.02-0.06,0.03-0.09
		c0.02-0.06,0.03-0.12,0.05-0.18c0.01-0.03,0.01-0.06,0.02-0.09c0.01-0.03,0.01-0.06,0.02-0.09c0.01-0.03,0.01-0.06,0.02-0.09
		c0.01-0.03,0.01-0.06,0.02-0.09c0.01-0.03,0.01-0.06,0.02-0.09c0.01-0.03,0.01-0.06,0.02-0.1c0-0.03,0.01-0.06,0.01-0.1
		c0-0.01,0-0.03,0.01-0.04l7.27,3.19c0.12,0.05,0.25,0.04,0.36-0.03s0.17-0.19,0.17-0.32v-1.4c0-0.1-0.03-0.19-0.11-0.26l-6.11-6.43
		l0.58-14.24l20.55,5.51c0.11,0.03,0.22,0.01,0.31-0.06c0.09-0.07,0.14-0.17,0.14-0.29v-2.81C279.06,87.7,279,87.59,278.89,87.52z"
		/>
</g>
</svg>
