<?xml version="1.0" encoding="utf-8"?>
<!-- Generator: Adobe Illustrator 24.2.1, SVG Export Plug-In . SVG Version: 6.00 Build 0)  -->
<svg version="1.1" id="Layer_1" xmlns="http://www.w3.org/2000/svg" xmlns:xlink="http://www.w3.org/1999/xlink" x="0px" y="0px"
	 viewBox="0 0 600 258.05" style="enable-background:new 0 0 600 258.05;" xml:space="preserve">
<style type="text/css">
	.st0{fill:#278ACC;}
	.st1{font-family:'Montserrat-Regular';}
	.st2{font-size:24.365px;}
	.st3{font-size:21.1159px;}
	.st4{fill:#001E72;}
	.st5{fill:url(#SVGID_1_);}
	.st6{fill:#182B6B;}
	.st7{fill:url(#SVGID_2_);}
	.st8{fill:#72BA5A;}
	.st9{fill:url(#SVGID_3_);}
	.st10{fill:#E89638;}
	.st11{font-family:'Montserrat-Bold';}
	.st12{font-size:17.0044px;}
	.st13{fill-rule:evenodd;clip-rule:evenodd;fill:#E89638;}
</style>
<g>
	<g>
		<text transform="matrix(1 0 0 1 256.1821 200.0948)" class="st0 st1 st2">Travel Management System</text>
		<text transform="matrix(1 0 0 1 260.8325 229.1397)" class="st0 st1 st3">Traffic &amp; Transportation Module</text>
		<g>
			<path class="st0" d="M258.1,68.03c0-6.38,5.08-11.32,12.62-11.32s12.62,4.69,12.62,10.93c0,6.77-5.08,11.71-12.62,11.71
				S258.1,74.41,258.1,68.03z M260.57,89.12h20.3v70.02h-20.3V89.12z"/>
			<path class="st4" d="M318.62,85.21h-29.15V68.03h79.39v17.18H339.7v73.92h-21.08V85.21z"/>
			<path class="st4" d="M366.38,124.13c0-21.08,16.27-36.05,38.52-36.05s38.39,14.97,38.39,36.05c0,21.08-16.14,36.05-38.39,36.05
				S366.38,145.21,366.38,124.13z M422.74,124.13c0-12.1-7.68-19.39-17.83-19.39s-17.96,7.29-17.96,19.39s7.81,19.39,17.96,19.39
				S422.74,136.23,422.74,124.13z"/>
			<path class="st4" d="M527.38,89.12v70.02h-19.26v-8.33c-5.34,6.12-13.14,9.37-21.73,9.37c-17.57,0-29.93-9.89-29.93-31.5V89.12
				h20.3v36.57c0,11.71,5.21,16.92,14.19,16.92c9.37,0,16.14-5.99,16.14-18.87V89.12H527.38z"/>
			<path class="st4" d="M589.72,88.08v18.74c-1.69-0.13-2.99-0.26-4.56-0.26c-11.19,0-18.61,6.12-18.61,19.52v33.06h-20.3V89.12
				h19.39v9.24C570.59,91.59,578.92,88.08,589.72,88.08z"/>
		</g>
	</g>
	<g>
		<g>
			<linearGradient id="SVGID_1_" gradientUnits="userSpaceOnUse" x1="11.3206" y1="131.4262" x2="234.0609" y2="130.5195">
				<stop  offset="0" style="stop-color:#182B6B"/>
				<stop  offset="1" style="stop-color:#359084"/>
			</linearGradient>
			<path class="st5" d="M122,242.85c-61.69,0-111.87-50.19-111.87-111.87C10.13,69.29,60.32,19.1,122,19.1
				c61.69,0,111.87,50.19,111.87,111.87C233.88,192.66,183.69,242.85,122,242.85z M122,24.04c-58.97,0-106.94,47.97-106.94,106.94
				S63.04,237.91,122,237.91s106.94-47.97,106.94-106.94S180.97,24.04,122,24.04z"/>
		</g>
		<polygon class="st6" points="113.58,208.58 90.61,187.12 90.61,110.2 113.58,110.2 		"/>
		<linearGradient id="SVGID_2_" gradientUnits="userSpaceOnUse" x1="71.4748" y1="154.0199" x2="154.7612" y2="154.0199">
			<stop  offset="0" style="stop-color:#182B6B"/>
			<stop  offset="1" style="stop-color:#359084"/>
		</linearGradient>
		<path class="st7" d="M137.15,136.77h22.97v49.29l-22.97,21.46V136.77z M182.57,110.2h-63.34v20.19h63.34l19.95-29.86L182.57,110.2
			z"/>
		<circle class="st6" cx="101.27" cy="91.76" r="12.31"/>
		<polygon class="st8" points="125.82,85.81 134.41,98.35 130.38,98.35 129.74,102.66 		"/>
		<path class="st8" d="M153.01,92.64l-13.73,5.03c-0.84-2.68-12.93-17.47-12.93-17.47l-1.37,2l-0.82-3.5
			C136.21,80,145.5,84.94,153.01,92.64z"/>
		<path class="st8" d="M161.26,103.22h-21.2c3.7-2.37,10.54-6.04,14.98-8.38c2.08,2.38,4.03,4.99,5.86,7.81
			C161.02,102.83,161.15,103.02,161.26,103.22z"/>
		<linearGradient id="SVGID_3_" gradientUnits="userSpaceOnUse" x1="55.4363" y1="189.8754" x2="77.4988" y2="90.4432">
			<stop  offset="0" style="stop-color:#D07422"/>
			<stop  offset="1" style="stop-color:#F29D2F"/>
		</linearGradient>
		<path class="st9" d="M74.62,169.04c1.46-1.56,3.88-3.3,7.7-4.07l-0.03,11.01C79.51,173.91,76.94,171.6,74.62,169.04z
			 M70.78,159.39c-0.01,0.01-0.01,0.01-0.01,0.02c-0.64,0.83-1.21,1.64-1.73,2.42c-13.07,19.79,8.65,26.34,8.65,26.34
			c-10.2-6.42-9.06-14.14-6.77-19.03l-0.15-0.26c3.23-6.11,8.35-8.81,11.56-9.97l0.02-9.32C79.18,151.05,74.62,155.35,70.78,159.39z
			 M68.83,161.49c0.07,0.11,0.15,0.23,0.22,0.34c0.51-0.78,1.09-1.59,1.73-2.42C70.09,160.12,69.44,160.82,68.83,161.49z
			 M60.65,126.25l-16.21,6.01l16.29,6.83c0.86,6.81,2.98,13.24,6.11,19.03c5.59-5.65,12.02-11.15,15.52-14.06v-2.03l-33.07-9.76
			h33.1l0.07-31.1l-8.77-4.64C66.6,104.67,61.89,114.94,60.65,126.25z M77.1,92.93l5.38,2.01l0.01-6.55
			C80.59,89.79,78.8,91.3,77.1,92.93z"/>
		<polygon class="st8" points="129.74,102.66 129.87,103.22 140.06,103.22 		"/>
		<polygon class="st10" points="129.87,103.22 120.8,66.42 116.43,83.06 120.13,75.66 120.13,102.94 		"/>
		<text transform="matrix(1 0 0 1 23.6646 137.1485)" class="st10 st11 st12">w</text>
		<path class="st13" d="M132.32,55.07l-9.18-5.9l0.01-0.3c0,0,0,0,0-0.01v0v0v0v0v0v0v0v0v0v0v0v0v0c0-0.04,0-0.09,0-0.13l0,0
			c0-0.04,0-0.09,0-0.13v0c0-0.04,0-0.09,0-0.13v0l0-0.13v0c0-0.04,0-0.09,0-0.13v0c0-0.04,0-0.09,0-0.13l0,0c0-0.04,0-0.09,0-0.13
			v0c0-0.08,0-0.17,0-0.25c0-0.04,0-0.08,0-0.13c0-0.04,0-0.08,0-0.13c0-0.08,0-0.17,0-0.25v0c0-0.04,0-0.08,0-0.12
			c0-0.04,0-0.08,0-0.12l0,0c0-0.04,0-0.08,0-0.12v0c0-0.04,0-0.08,0-0.12c0-0.08-0.01-0.16-0.01-0.24v0c0-0.04,0-0.08-0.01-0.12
			s0-0.08-0.01-0.12c0-0.08-0.01-0.15-0.02-0.23v0c0-0.04-0.01-0.08-0.01-0.11c0-0.04-0.01-0.08-0.01-0.11
			c0-0.04-0.01-0.07-0.01-0.11v0c0-0.04-0.01-0.07-0.01-0.11c0-0.04-0.01-0.07-0.01-0.11c0-0.04-0.01-0.07-0.01-0.11v0
			c-0.01-0.04-0.01-0.07-0.02-0.11c-0.01-0.04-0.01-0.07-0.02-0.11v0c-0.01-0.04-0.01-0.07-0.02-0.1c-0.01-0.03-0.01-0.07-0.02-0.1
			c-0.01-0.03-0.01-0.07-0.02-0.1c-0.01-0.03-0.01-0.07-0.02-0.1c-0.01-0.03-0.02-0.07-0.02-0.1c-0.02-0.07-0.03-0.13-0.05-0.2
			c-0.01-0.03-0.02-0.06-0.03-0.1c-0.74-2.35-2.43-2.35-3.17,0c-0.01,0.03-0.02,0.06-0.03,0.1c-0.02,0.06-0.04,0.13-0.05,0.2
			c-0.01,0.03-0.02,0.07-0.02,0.1c-0.01,0.03-0.02,0.07-0.02,0.1c-0.01,0.03-0.01,0.07-0.02,0.1c-0.01,0.03-0.01,0.07-0.02,0.1
			c-0.01,0.03-0.01,0.07-0.02,0.1v0c-0.01,0.04-0.01,0.07-0.02,0.11c-0.01,0.04-0.01,0.07-0.02,0.11v0
			c-0.01,0.04-0.01,0.07-0.01,0.11c0,0.04-0.01,0.07-0.01,0.11c0,0.04-0.01,0.07-0.01,0.11v0c0,0.04-0.01,0.07-0.01,0.11
			c0,0.04-0.01,0.08-0.01,0.11c0,0.04-0.01,0.08-0.01,0.11v0c-0.01,0.08-0.01,0.15-0.02,0.23c0,0.04,0,0.08-0.01,0.12
			s0,0.08-0.01,0.12v0c0,0.08-0.01,0.16-0.01,0.24c0,0.04,0,0.08,0,0.12v0c0,0.04,0,0.08,0,0.12l0,0c0,0.04,0,0.08,0,0.12
			c0,0.04,0,0.08,0,0.12v0c0,0.08,0,0.16,0,0.25c0,0.04,0,0.08,0,0.13c0,0.04,0,0.08,0,0.13c0,0.08,0,0.17,0,0.25v0
			c0,0.04,0,0.08,0,0.13l0,0c0,0.04,0,0.09,0,0.13v0c0,0.04,0,0.09,0,0.13v0l0,0.13v0c0,0.04,0,0.09,0,0.13v0c0,0.04,0,0.09,0,0.13
			l0,0c0,0.04,0,0.09,0,0.13v0v0v0v0v0v0v0v0v0v0v0v0v0c0,0,0,0,0,0.01l0.01,0.3l-9.18,5.9c-0.05,0.03-0.08,0.08-0.08,0.14v1.27
			c0,0.05,0.02,0.1,0.06,0.13c0.04,0.03,0.09,0.04,0.14,0.03l9.26-2.48l0.27,6.57l-2.61,2.75c-0.03,0.03-0.05,0.07-0.05,0.12v0.63
			c0,0.06,0.03,0.11,0.08,0.14c0.05,0.03,0.11,0.04,0.16,0.01l3.13-1.38c0,0,0,0,0,0c0,0.01,0,0.03,0.01,0.04
			c0,0.01,0,0.03,0.01,0.04c0,0.01,0.01,0.03,0.01,0.04c0,0.01,0.01,0.03,0.01,0.04c0,0.01,0.01,0.03,0.01,0.04
			c0,0.01,0.01,0.03,0.01,0.04c0.01,0.03,0.01,0.05,0.02,0.08c0,0.01,0.01,0.03,0.01,0.04c0.02,0.05,0.03,0.1,0.05,0.15
			c0,0.01,0.01,0.02,0.02,0.04c0.01,0.02,0.02,0.05,0.03,0.07c0.01,0.02,0.02,0.04,0.04,0.07c0.17,0.28,0.33,0.43,0.5,0.43
			c0.19,0.01,0.37-0.16,0.54-0.5c0.01-0.02,0.02-0.05,0.03-0.07c0.01-0.01,0.01-0.02,0.02-0.04c0.02-0.05,0.04-0.1,0.05-0.15
			c0-0.01,0.01-0.03,0.01-0.04c0.01-0.03,0.01-0.05,0.02-0.08c0-0.01,0.01-0.03,0.01-0.04s0.01-0.03,0.01-0.04s0.01-0.03,0.01-0.04
			c0-0.01,0.01-0.03,0.01-0.04c0-0.01,0.01-0.03,0.01-0.04c0-0.01,0-0.03,0.01-0.04c0-0.01,0-0.03,0.01-0.04c0-0.01,0-0.01,0-0.02
			l3.28,1.44c0.05,0.02,0.11,0.02,0.16-0.01c0.05-0.03,0.08-0.08,0.08-0.14v-0.63c0-0.05-0.02-0.09-0.05-0.12l-2.75-2.9l0.26-6.41
			l9.26,2.48c0.05,0.01,0.1,0,0.14-0.03c0.04-0.03,0.06-0.08,0.06-0.13v-1.27C132.39,55.15,132.36,55.1,132.32,55.07z"/>
	</g>
</g>
</svg>
